<svg xmlns="http://www.w3.org/2000/svg" width="900" height="500" viewBox="0 0 900 500"><defs><linearGradient id="g" x1="0" x2="1"><stop stop-color="#247bff"/><stop offset="1" stop-color="#ff354f"/></linearGradient><pattern id="d" width="18" height="18" patternUnits="userSpaceOnUse"><circle cx="2" cy="2" r="1" fill="#21304d" opacity=".45"/></pattern><style><![CDATA[text{font-family:Arial,sans-serif} .m{font-family:monospace}.muted{fill:#91a1bf}.off{fill:#f4f6fa}.blue{fill:#247bff}.pink{fill:#ff354f}.cap{font-size:12px;letter-spacing:2px}.h1{font-size:44px;font-weight:800}.body{font-size:16px}.small{font-size:11px}@media(prefers-reduced-motion:reduce){*{animation:none!important}}]]></style></defs><rect width="900" height="500" rx="28" fill="#070b16"/><rect width="900" height="500" rx="28" fill="url(#d)"/><rect x="22" y="22" width="856" height="456" rx="22" fill="#0b1324" stroke="#213253"/><path d="M22 22h856v5H22z" fill="#247bff"/><text x="48" y="58" class="cap muted">SUGURU SANJEEVA KUMAR / GITHUB PROFILE</text><image href="https://avatars.githubusercontent.com/u/116718575?v=4" x="585" y="56" width="255" height="392" preserveAspectRatio="xMidYMax meet"/><text x="48" y="110" class="cap pink">HELLO, I'M</text><text x="48" y="165" class="h1 off">SUGURU</text><text x="48" y="215" class="h1 blue">SANJEEVA <tspan class="off">KUMAR</tspan></text><text x="48" y="250" class="body off">I build software around problems worth solving.</text><g><text x="48" y="278" class="small blue">ROLE / <tspan class="off">Full-Stack Developer</tspan><animate attributeName="opacity" values="1;1;0;0;1" keyTimes="0;.22;.28;.92;1" dur="8s" repeatCount="indefinite"/></text><text x="48" y="278" class="small blue" opacity="0">ROLE / <tspan class="off">AI System Builder</tspan><animate attributeName="opacity" values="0;0;1;1;0" keyTimes="0;.22;.28;.92;1" dur="8s" repeatCount="indefinite"/></text></g><rect x="48" y="300" width="188" height="30" rx="15" fill="#11284d" stroke="#247bff"/><text x="63" y="320" class="small off">FULL-STACK DEVELOPER</text><rect x="244" y="300" width="170" height="30" rx="15" fill="#271327" stroke="#ff354f"/><text x="259" y="320" class="small off">AI SYSTEM BUILDER</text><rect x="48" y="342" width="198" height="30" rx="15" fill="#12213c" stroke="#315177"/><text x="63" y="362" class="small off">BACKEND &amp; API ENGINEER</text><rect x="254" y="342" width="164" height="30" rx="15" fill="#271327" stroke="#ff354f"/><text x="269" y="362" class="small off">ANDROID DEVELOPER</text><line x1="48" y1="395" x2="520" y2="395" stroke="url(#g)"/><text x="48" y="420" class="small muted">LOCATION</text><text x="120" y="420" class="small off">Hyderabad, India</text><text x="48" y="444" class="small muted">EDUCATION</text><text x="120" y="444" class="small off">B.Tech Lateral Entry · CSE · Geethanjali College</text><text x="48" y="466" class="small muted">STACK</text><text x="120" y="466" class="small off">Python · TypeScript · React · FastAPI · PostgreSQL · Kotlin</text></svg>