<svg xmlns="http://www.w3.org/2000/svg" width="900" height="410" viewBox="0 0 900 410"><defs><pattern id="d" width="18" height="18" patternUnits="userSpaceOnUse"><circle cx="2" cy="2" r="1" fill="#21304d" opacity=".45"/></pattern><style><![CDATA[text{font-family:Arial,sans-serif}.off{fill:#f4f6fa}.muted{fill:#91a1bf}.pink{fill:#ff354f}.small{font-size:11px}.cap{font-size:12px;letter-spacing:2px}@media(prefers-reduced-motion:reduce){*{animation:none!important}}]]></style></defs><rect width="900" height="410" rx="28" fill="#070b16"/><rect width="900" height="410" rx="28" fill="url(#d)"/><text x="34" y="43" class="cap pink">TECH STACK</text><rect x="24" y="60" width="850" height="335" rx="22" fill="#0b1324" stroke="#213253"/><g><ellipse cx="430" cy="215" rx="375" ry="112" fill="none" stroke="#173b70" stroke-width="8" opacity=".7" transform="rotate(-7 430 215)"/><ellipse cx="430" cy="215" rx="285" ry="70" fill="none" stroke="#247bff" stroke-width="4" opacity=".8" transform="rotate(-7 430 215)"/><ellipse cx="430" cy="215" rx="190" ry="43" fill="none" stroke="#31568f" stroke-width="3" opacity=".65" transform="rotate(-7 430 215)"/><animateTransform attributeName="transform" type="rotate" from="0 430 215" to="360 430 215" dur="18s" repeatCount="indefinite"/></g><g><circle cx="145" cy="130" r="20" fill="#0d1a30" stroke="#27446f"/><circle cx="145" cy="130" r="7" fill="#ffd343"/><text x="145" y="170" text-anchor="middle" class="small off">Python</text></g><g><circle cx="285" cy="95" r="20" fill="#0d1a30" stroke="#27446f"/><circle cx="285" cy="95" r="7" fill="#3178c6"/><text x="285" y="135" text-anchor="middle" class="small off">TypeScript</text></g><g><circle cx="445" cy="110" r="20" fill="#0d1a30" stroke="#27446f"/><circle cx="445" cy="110" r="7" fill="#f7df1e"/><text x="445" y="150" text-anchor="middle" class="small off">JavaScript</text></g><g><circle cx="610" cy="95" r="20" fill="#0d1a30" stroke="#27446f"/><circle cx="610" cy="95" r="7" fill="#61dafb"/><text x="610" y="135" text-anchor="middle" class="small off">React</text></g><g><circle cx="755" cy="135" r="20" fill="#0d1a30" stroke="#27446f"/><circle cx="755" cy="135" r="7" fill="#68a063"/><text x="755" y="175" text-anchor="middle" class="small off">Node.js</text></g><g><circle cx="240" cy="205" r="20" fill="#0d1a30" stroke="#27446f"/><circle cx="240" cy="205" r="7" fill="#a855f7"/><text x="240" y="245" text-anchor="middle" class="small off">Vite</text></g><g><circle cx="380" cy="185" r="20" fill="#0d1a30" stroke="#27446f"/><circle cx="380" cy="185" r="7" fill="#23c97d"/><text x="380" y="225" text-anchor="middle" class="small off">FastAPI</text></g><g><circle cx="525" cy="205" r="20" fill="#0d1a30" stroke="#27446f"/><circle cx="525" cy="205" r="7" fill="#f3f5f9"/><text x="525" y="245" text-anchor="middle" class="small off">Flask</text></g><g><circle cx="665" cy="190" r="20" fill="#0d1a30" stroke="#27446f"/><circle cx="665" cy="190" r="7" fill="#336791"/><text x="665" y="230" text-anchor="middle" class="small off">PostgreSQL</text></g><g><circle cx="785" cy="220" r="20" fill="#0d1a30" stroke="#27446f"/><circle cx="785" cy="220" r="7" fill="#4ea7d6"/><text x="785" y="260" text-anchor="middle" class="small off">MySQL</text></g><g><circle cx="235" cy="285" r="20" fill="#0d1a30" stroke="#27446f"/><circle cx="235" cy="285" r="7" fill="#ff7ab6"/><text x="235" y="325" text-anchor="middle" class="small off">Kotlin</text></g><g><circle cx="395" cy="275" r="20" fill="#0d1a30" stroke="#27446f"/><circle cx="395" cy="275" r="7" fill="#2496ed"/><text x="395" y="315" text-anchor="middle" class="small off">Docker</text></g><g><circle cx="555" cy="292" r="20" fill="#0d1a30" stroke="#27446f"/><circle cx="555" cy="292" r="7" fill="#0ea5e9"/><text x="555" y="332" text-anchor="middle" class="small off">Prisma</text></g><g><circle cx="705" cy="285" r="20" fill="#0d1a30" stroke="#27446f"/><circle cx="705" cy="285" r="7" fill="#78c257"/><text x="705" y="325" text-anchor="middle" class="small off">Android</text></g><rect x="664" y="330" width="188" height="48" rx="12" fill="#101d34" stroke="#2c4d7b"/><text x="681" y="350" class="small muted">GROUPED STACK</text><text x="681" y="368" class="small off">Languages · Frontend · Backend · Data</text></svg>